<?xml version="1.0" encoding="utf-8"?>
<!-- Generator: Adobe Illustrator 27.8.0, SVG Export Plug-In . SVG Version: 6.00 Build 0)  -->
<svg version="1.1" id="Layer_1" xmlns="http://www.w3.org/2000/svg" xmlns:xlink="http://www.w3.org/1999/xlink" x="0px" y="0px"
	 viewBox="0 0 512 512" style="enable-background:new 0 0 512 512;" xml:space="preserve">
<style type="text/css">
	.st0{fill-rule:evenodd;clip-rule:evenodd;fill:#FFFFFF;}
</style>
<path class="st0" d="M176,320c8.8,0,16,7.2,16,16s-7.2,16-16,16s-16-7.2-16-16S167.2,320,176,320L176,320z M128.8,274.4
	c-10.4-69.6,38.4-135.2,108.8-144.8s135.2,38.4,144.8,108s-38.4,135.2-108,145.6c-0.8,0-1.6,0-2.4,0h2.4
	c-8.8,1.6-16.8-4.8-18.4-13.6c-1.6-8.8,4.8-16.8,13.6-18.4l0,0l0,0c52.8-7.2,88.8-56,81.6-108.8s-56-88.8-108.8-81.6
	c-52.8,7.2-88.8,56-81.6,108.8l0,0l0,0l0,0c1.6,8.8-4.8,16.8-13.6,18.4C138.4,288.8,130.4,283.2,128.8,274.4l0.8,2.4
	C129.6,276,129.6,275.2,128.8,274.4L128.8,274.4z M384,104c0-13.6,10.4-24,24-24c12.8,0,24,10.4,24,24v0.8c0,12.8-11.2,24-24,24
	C394.4,128,384,117.6,384,104L384,104z M469.6,468c-28,28-66.4,44-133.6,44H176c-66.4,0-105.6-16-132.8-44C15.2,440.8,0,401.6,0,336
	V176C0,110.4,15.2,72,42.4,44C70.4,16,108.8,0,176,0h160c66.4,0,105.6,16,132.8,44c1.6,1.6,3.2,4,4.8,5.6c4,3.2,6.4,7.2,6.4,12
	c0,8.8-7.2,16-16,16c-4.8,0-8.8-2.4-12-5.6l0,0c-1.6-1.6-3.2-4-4.8-5.6C422.4,41.6,386.4,32,328,32H184c-58.4,0-94.4,9.6-118.4,34.4
	c-24,24-33.6,60-33.6,117.6v144c0,57.6,9.6,93.6,33.6,117.6c24,24.8,60,34.4,118.4,34.4h144c58.4,0,94.4-9.6,118.4-34.4
	c24-24,33.6-60,33.6-117.6V184c0-13.6-0.8-26.4-1.6-38.4l0,0c-0.8-8.8,5.6-16.8,14.4-17.6s16.8,5.6,17.6,14.4v0.8l0,0
	c0.8,10.4,1.6,20.8,1.6,32.8v160C512,401.6,496.8,440.8,469.6,468L469.6,468z"/>
</svg>
