<?xml version="1.0" encoding="utf-8"?>
<!-- Generator: Adobe Illustrator 27.8.0, SVG Export Plug-In . SVG Version: 6.00 Build 0)  -->
<svg version="1.1" id="Layer_5" xmlns="http://www.w3.org/2000/svg" xmlns:xlink="http://www.w3.org/1999/xlink" x="0px" y="0px"
	 viewBox="0 0 682.7 512" style="enable-background:new 0 0 682.7 512;" xml:space="preserve">
<style type="text/css">
	.st0{fill-rule:evenodd;clip-rule:evenodd;fill:#FFFFFF;}
</style>
<path class="st0" d="M675.9,395.2c0,0-15.3,52.9-35.9,74.1c-26,27.7-57.1,33.7-70.4,35.3c-4.4,0.3-8.9,0.7-13.5,0.9v-0.1
	c-6,0.5-12.1-1.3-16.7-5.9c-8.3-8.3-8.3-21.7,0-29.9c3.7-3.7,8.7-5.6,13.5-5.9v-0.3c0.7,0,1.5-0.1,2.1-0.1
	c11.1-1.3,35.2-1.5,56.7-24.4c16.9-17.5,22.4-57.2,22.4-57.2s5.6-46.7,5.6-93.2v-65.1c0-46.7-5.6-93.2-5.6-93.2s-5.5-39.7-22.4-57.2
	c-21.5-22.9-45.6-23.1-56.7-24.4c-78.9-6.1-213.7-6.1-213.7-6.1s-134.8,0-213.9,5.9c-11.1,1.3-35.2,1.5-56.7,24.4
	c-16.9,17.5-22.4,57.2-22.4,57.2s-5.6,46.7-5.6,93.2v65.1c0,46.7,5.6,93.2,5.6,93.2s5.5,39.7,22.4,57.2
	c21.5,22.9,49.7,22.3,62.4,24.7c45.2,4.4,208.1,5.9,208.1,5.9c11.7,0,21.3,9.6,21.3,21.3c0,11.7-9.6,21.3-21.3,21.3
	c-0.4,0-0.7,0-1.1-0.1c-13.5-0.1-168.1-1.9-220.4-7.1c-15.2-2.9-51.3-7.7-77.3-35.6C22,448,6.8,395.1,6.8,395.1S0,349.5,0,292.9
	v-74.3c0-56.4,6.8-102.3,6.8-102.3s15.3-52.5,35.9-73.7c26-27.7,57.1-34,70.4-35.6C208.5,0,341.2,0,341.2,0h0.3
	c0,0,132.7,0,228.1,7.1c13.3,1.6,44.4,7.9,70.4,35.6c20.5,21.2,35.9,73.9,35.9,73.9s6.8,45.7,6.8,102.3v74.3
	C682.7,349.5,675.9,395.2,675.9,395.2L675.9,395.2z M426.7,469.3c11.7,0,21.3,9.6,21.3,21.3c0,11.7-9.6,21.3-21.3,21.3
	c-11.7,0-21.3-9.6-21.3-21.3C405.3,478.9,414.9,469.3,426.7,469.3L426.7,469.3z M331.3,360.1l-0.1,0.1c-3.2,1.9-6.8,3.1-10.8,3.1
	c-11.6,0-21.1-9.5-21.1-21.1c0-8.1,4.7-15.1,11.3-18.5l0,0l108.8-58c0,0-0.3-0.1-0.1-0.1c3.6-1.7,6-5.3,6-9.6c0-3.9-2.1-7.3-5.2-9.1
	l-127.3-68.1c-1.5-0.8-3.1-1.1-4.7-1.1c-5.7,0-10.3,4.5-10.5,10v132h-0.3c0,0.1,0,0.1,0,0.3c0,11.7-9.6,21.3-21.3,21.3
	s-21.3-9.6-21.3-21.3l0,0V171.5c0-24,19.5-43.5,43.5-43.5c8.1,0,15.9,2.3,22.4,6.3c0.3,0.1,0.4,0.1,0.5,0.1l147.2,84.8
	c3.1,1.9,6,4,8.7,6.7c16.7,16.7,16.7,43.7,0,60.4c-2.4,2.4-5.2,4.5-8,6.3l-116.7,67.2C331.9,359.9,331.6,360,331.3,360.1
	L331.3,360.1z"/>
</svg>
